<svg width="16" height="16" viewBox="0 0 16 16" fill="none" xmlns="http://www.w3.org/2000/svg">
<g clip-path="url(#clip0_9_1565)">
<g clip-path="url(#clip1_9_1565)">
<path d="M8 16C12.4334 16 16 12.4334 16 8C16 3.56664 12.4334 0 8 0C3.56664 0 0 3.56664 0 8C0 12.4334 3.56664 16 8 16Z" fill="#2775CA"/>
<path d="M10.2 9.26664C10.2 8.1 9.49998 7.7 8.09998 7.53336C7.09998 7.4 6.89998 7.13336 6.89998 6.66664C6.89998 6.19992 7.23334 5.9 7.89998 5.9C8.49998 5.9 8.83334 6.1 8.99998 6.6C9.03334 6.7 9.13334 6.76664 9.23334 6.76664H9.76662C9.89998 6.76664 9.99998 6.66664 9.99998 6.53336V6.5C9.86662 5.76664 9.26662 5.2 8.49998 5.13336V4.33336C8.49998 4.2 8.39998 4.1 8.23334 4.06664H7.73334C7.59998 4.06664 7.49998 4.16664 7.46662 4.33336V5.1C6.46662 5.23336 5.83334 5.9 5.83334 6.73336C5.83334 7.83336 6.49998 8.26664 7.89998 8.43336C8.83334 8.6 9.13334 8.8 9.13334 9.33336C9.13334 9.86672 8.66662 10.2334 8.03334 10.2334C7.16662 10.2334 6.86662 9.86664 6.76662 9.36664C6.73334 9.23336 6.63334 9.16664 6.53334 9.16664H5.96662C5.83334 9.16664 5.73334 9.26664 5.73334 9.4V9.43336C5.86662 10.2666 6.39998 10.8666 7.49998 11.0334V11.8334C7.49998 11.9666 7.59998 12.0666 7.76662 12.1H8.26662C8.39998 12.1 8.49998 12 8.53334 11.8334V11.0334C9.53334 10.8666 10.2 10.1666 10.2 9.26664Z" fill="white"/>
<path d="M6.29998 12.7666C3.69998 11.8334 2.36662 8.93336 3.33334 6.36664C3.83334 4.96664 4.93334 3.9 6.29998 3.4C6.43334 3.33336 6.49998 3.23336 6.49998 3.06664V2.6C6.49998 2.46664 6.43334 2.36664 6.29998 2.33336C6.26662 2.33336 6.19998 2.33336 6.16662 2.36664C2.99998 3.36664 1.26662 6.73336 2.26662 9.9C2.86662 11.7666 4.29998 13.2 6.16662 13.8C6.29998 13.8666 6.43334 13.8 6.46662 13.6666C6.49998 13.6334 6.49998 13.6 6.49998 13.5334V13.0666C6.49998 12.9666 6.39998 12.8334 6.29998 12.7666ZM9.83334 2.36664C9.69998 2.3 9.56662 2.36664 9.53334 2.5C9.49998 2.53336 9.49998 2.56664 9.49998 2.63336V3.1C9.49998 3.23336 9.59998 3.36664 9.69998 3.43336C12.3 4.36664 13.6333 7.26664 12.6666 9.83336C12.1666 11.2334 11.0666 12.3 9.69998 12.8C9.56662 12.8666 9.49998 12.9666 9.49998 13.1334V13.6C9.49998 13.7334 9.56662 13.8334 9.69998 13.8666C9.73334 13.8666 9.79998 13.8666 9.83334 13.8334C13 12.8334 14.7333 9.46664 13.7333 6.3C13.1333 4.4 11.6666 2.96664 9.83334 2.36664Z" fill="white"/>
</g>
</g>
<defs>
<clipPath id="clip0_9_1565">
<rect width="16" height="16" fill="white"/>
</clipPath>
<clipPath id="clip1_9_1565">
<rect width="16" height="16" fill="white"/>
</clipPath>
</defs>
</svg>
